<svg id="awning_header" data-name="awning header" xmlns="http://www.w3.org/2000/svg" viewBox="0 0 122.36 141"><defs><style>.cls-1{opacity:0.2;}.cls-2{fill:#476fcc;}.cls-3{fill:#f2e6da;}</style></defs><title>awning</title><path class="cls-1" d="M349.38-190h-102V-67a10,10,0,0,0,10,10h0.39a10,10,0,0,0,10-10,10,10,0,0,0,10,10h0.39a10,10,0,0,0,10-10,10,10,0,0,0,10,10h0.39a10,10,0,0,0,10-10,10,10,0,0,0,10,10H319a10,10,0,0,0,10-10,10,10,0,0,0,10,10h0.39a10,10,0,0,0,10-10,10,10,0,0,0,10,10h0.39a10,10,0,0,0,10-10V-190H349.38Z" transform="translate(-247.41 198)"/><path class="cls-2" d="M0,0H20.39a0,0,0,0,1,0,0V123a10,10,0,0,1-10,10H10A10,10,0,0,1,0,123V0A0,0,0,0,1,0,0Z"/><path class="cls-3" d="M20.39,0H40.79a0,0,0,0,1,0,0V123a10,10,0,0,1-10,10H30.39a10,10,0,0,1-10-10V0A0,0,0,0,1,20.39,0Z"/><path class="cls-2" d="M40.79,0H61.18a0,0,0,0,1,0,0V123a10,10,0,0,1-10,10H50.79a10,10,0,0,1-10-10V0A0,0,0,0,1,40.79,0Z"/><path class="cls-3" d="M61.18,0H81.57a0,0,0,0,1,0,0V123a10,10,0,0,1-10,10H71.18a10,10,0,0,1-10-10V0A0,0,0,0,1,61.18,0Z"/><path class="cls-2" d="M81.57,0H102a0,0,0,0,1,0,0V123a10,10,0,0,1-10,10H91.57a10,10,0,0,1-10-10V0A0,0,0,0,1,81.57,0Z"/><path class="cls-3" d="M102,0h20.39a0,0,0,0,1,0,0V123a10,10,0,0,1-10,10H112a10,10,0,0,1-10-10V0a0,0,0,0,1,0,0Z"/></svg>