<svg id="Logo" xmlns="http://www.w3.org/2000/svg" viewBox="0 0 500 126.06"><defs><style>.cls-1{opacity:0.2;}.cls-2{fill:#f2e6da;}.cls-3{fill:#476fcc;}.cls-4{fill:none;}.cls-5{opacity:0.1;}</style></defs><title>logo</title><path class="cls-1" d="M748,6H498V65.8l45.35-.49V106h74.38c25.61,20,86.94,20.32,130.27,20,43.33,0.31,104.66,0,130.27-20h74.38V65.31L998,65.8V6H748Z" transform="translate(-497.99 0)"/><path class="cls-2" d="M748,0H498V59.8l45.35-.49V100h74.38c25.61,20,86.94,20.32,130.27,20,43.33,0.31,104.66,0,130.27-20h74.38V59.31L998,59.8V0H748Z" transform="translate(-497.99 0)"/><path class="cls-3" d="M761.37,115.06c-4.59,0-9,0-13.34-.06s-8.82.06-13.41,0.06c-41.67,0-92.26-2.16-113.82-19L619.45,95h-71.1V54.26L503,54.75V5H993V54.75l-45.35-.49V95h-71.1l-1.36,1.06C853.63,112.9,803,115.06,761.37,115.06Z" transform="translate(-497.99 0)"/><path class="cls-2" d="M761.37,110.06c-4.57,0-9,0-13.3-.06s-8.87.06-13.44,0.06c-37.68,0-90.15-1.86-110.74-17.94L621.17,90H553.34V49.2L508,49.69V10H988V49.69l-45.35-.49V90H874.82l-2.71,2.12C851.52,108.2,799,110.06,761.37,110.06Z" transform="translate(-497.99 0)"/><path class="cls-4" d="M696.9,26.93a15.09,15.09,0,0,1,4.23,2.35l-0.26-.34a9.54,9.54,0,0,0-2.55-2.07,11.63,11.63,0,0,0-3-1.17,18.27,18.27,0,0,0-3.3-.48,31.35,31.35,0,0,0-3.36,0q-1.68.09-3.18,0.27a22.67,22.67,0,0,0-3,.53,34.37,34.37,0,0,1,6.11-.5A25.73,25.73,0,0,1,696.9,26.93Z" transform="translate(-497.99 0)"/><path class="cls-3" d="M768.14,94.76q0.07,2.65-3.14,2.14a3,3,0,0,1-2.46-2.53c-0.54-2.28.95-4.24,2.8-5.46,3.87-2.55,9.39-1.58,13.66-.79,6.64,1.23,12,4.94,18.29,7.08,8.74,3,21.31,5.8,30.32,2.36,3.54-1.35,6.83-4.61,6.9-8.58a7.11,7.11,0,0,0-6.69-7.29,5.29,5.29,0,0,0-5.87,6.13c0.3,2.76,4.65,4.07,5.75.81,0.5-1.49-2.16-3-2.5-1.5,0.61-3.26,5.33-3.2,6.56.38a6.22,6.22,0,0,1-1.62,5.19A9,9,0,0,1,826,95.11a23,23,0,0,1-6.78.85,63.37,63.37,0,0,1-17.55-2.44c-11.15-3.06-21.3-11.5-33.52-10-4.44.55-9.17,3.29-10.29,7.93-0.9,3.7.49,8,4,9.71,3.8,1.85,9.39.57,10.78-3.61,1.14-3.42-.54-7.52-3.77-7-2.26.38-3.09,3.82-.78,4.17h0Z" transform="translate(-497.99 0)"/><path class="cls-3" d="M727.85,94.76q-0.07,2.65,3.14,2.14a3,3,0,0,0,2.46-2.53c0.54-2.28-.95-4.24-2.8-5.46-3.87-2.55-9.39-1.58-13.66-.79-6.64,1.23-12,4.94-18.29,7.08-8.74,3-21.31,5.8-30.32,2.36-3.54-1.35-6.83-4.61-6.9-8.58a7.11,7.11,0,0,1,6.69-7.29,5.29,5.29,0,0,1,5.88,6.13c-0.3,2.76-4.65,4.07-5.75.81-0.5-1.49,2.16-3,2.5-1.5-0.61-3.26-5.33-3.2-6.56.38a6.22,6.22,0,0,0,1.63,5.19,9,9,0,0,0,4.08,2.42,23,23,0,0,0,6.78.85,63.37,63.37,0,0,0,17.55-2.44c11.15-3.06,21.3-11.5,33.52-10,4.44,0.55,9.17,3.29,10.29,7.93,0.9,3.7-.49,8-4,9.71-3.8,1.85-9.39.57-10.78-3.61-1.14-3.42.54-7.52,3.77-7,2.26,0.38,3.09,3.82.78,4.17h0Z" transform="translate(-497.99 0)"/><path class="cls-3" d="M748,87a4.5,4.5,0,1,0,4.5,4.5A4.5,4.5,0,0,0,748,87Zm0,7.17a2.67,2.67,0,1,1,2.67-2.67A2.67,2.67,0,0,1,748,94.17Z" transform="translate(-497.99 0)"/><g class="cls-5"><path d="M601.58,77.81a4.4,4.4,0,0,0,3.49-2,24.54,24.54,0,0,0,3-5.33,77.15,77.15,0,0,0,2.7-7.56q1.3-4.25,2.77-8.71t3.17-8.71a47.14,47.14,0,0,1,3.82-7.63,21.1,21.1,0,0,1,4.79-5.47,10.29,10.29,0,0,1,6-2.23,14.91,14.91,0,0,0-5.08-3.56,18.9,18.9,0,0,0-7.74-1.4A19.25,19.25,0,0,0,608,27.92a21.88,21.88,0,0,0-6.91,6.84,26.88,26.88,0,0,0-3.6,8.89,31.26,31.26,0,0,0-.68,8.89,16.41,16.41,0,0,0,1.87,6.84q1.55,2.74,4.07,2.74a2.37,2.37,0,0,0,1.87-.83,2.59,2.59,0,0,0,.68-1.84,2.52,2.52,0,0,0-1-1.84,4.94,4.94,0,0,0-3.2-.83,3.6,3.6,0,0,1,1.51-3.06,5.71,5.71,0,0,1,3.35-1.15,5.22,5.22,0,0,1,3.35,1.12,4.41,4.41,0,0,1,1.51,3.74,6.26,6.26,0,0,1-.79,3.13A8,8,0,0,1,607.92,63a10.52,10.52,0,0,1-6.34,2.16,12.46,12.46,0,0,1-7-1.84,11.06,11.06,0,0,1-4.1-4.86,16.57,16.57,0,0,1-1.3-6.91,25.55,25.55,0,0,1,1.37-7.88,32.35,32.35,0,0,1,4-7.88,30.8,30.8,0,0,1,6.44-6.91A31.85,31.85,0,0,1,609.68,24a31.25,31.25,0,0,1,11-1.84q8.06,0,12.85,2.34a16.15,16.15,0,0,1,6.95,5.87A13.06,13.06,0,0,1,642.4,38a17.3,17.3,0,0,1-7.6,13.54,13.27,13.27,0,0,1-7.67,2.34,14.54,14.54,0,0,1-4.9-.79q-1.66,5-3.53,9.9a49.09,49.09,0,0,1-4.36,8.86,23.86,23.86,0,0,1-5.72,6.37,12.2,12.2,0,0,1-7.56,2.45,12.79,12.79,0,0,1-3.6-.5,7.07,7.07,0,0,1-2.92-1.62,5.71,5.71,0,0,1-1.62-2.88,8.74,8.74,0,0,1,.29-4.36,4.73,4.73,0,0,1,1.69-2.7,6.83,6.83,0,0,1,2.74-1.3,7.38,7.38,0,0,1,3,0,5,5,0,0,1,2.45,1.12,3.24,3.24,0,0,1,1.08,2.16,4.62,4.62,0,0,1-1.08,3.06,2.81,2.81,0,0,0-1.76-.79,2.46,2.46,0,0,0-1.48.47,2.88,2.88,0,0,0-1,1.22A2.45,2.45,0,0,0,598.7,76a2.12,2.12,0,0,0,.83,1.26A3.27,3.27,0,0,0,601.58,77.81Zm30.74-46.37a9.41,9.41,0,0,0-2.66,2.81,29.37,29.37,0,0,0-2.3,4.36q-1.08,2.48-2.09,5.47t-2.09,6.23a12.27,12.27,0,0,0,2.23.83,8,8,0,0,0,1.94.25,5.53,5.53,0,0,0,4.25-2,12.33,12.33,0,0,0,2.63-5,17.2,17.2,0,0,0,.43-6.52A14.07,14.07,0,0,0,632.32,31.44Z" transform="translate(-497.99 0)"/><path d="M657.88,47.72q-1.15,3.82-2.16,7.2-0.86,2.88-1.73,5.72l-1.3,4.28a8.28,8.28,0,0,0-.65,3.49,1.14,1.14,0,0,0,.79.9,2.77,2.77,0,0,0,2.05-.54A5.73,5.73,0,0,0,657,66.15h1a16,16,0,0,1-2,3.78,12.82,12.82,0,0,1-2.41,2.52,9.25,9.25,0,0,1-2.45,1.4,6.31,6.31,0,0,1-2.12.43,4.38,4.38,0,0,1-2.45-.76q-1.15-.76-1.3-3.06a14.64,14.64,0,0,1-3.53,2.7,8.14,8.14,0,0,1-4,1.12,3.19,3.19,0,0,1-2.3-.9,4.38,4.38,0,0,1-1.15-2.74,14.56,14.56,0,0,1,.4-4.64A35,35,0,0,1,637,59.45a21.87,21.87,0,0,1,4.25-6.52,21.2,21.2,0,0,1,5.51-4.21,16.07,16.07,0,0,1,5.83-1.8A10.17,10.17,0,0,1,657.88,47.72ZM645.5,67.3a20,20,0,0,1,.65-2.38l4.25-14.18a2.72,2.72,0,0,0-.86-0.14,3.38,3.38,0,0,0-2.38,1.33,16,16,0,0,0-2.3,3.38,41.15,41.15,0,0,0-2,4.39,25.93,25.93,0,0,0-1.3,4.39,10.78,10.78,0,0,0-.22,3.38q0.18,1.33,1.12,1.33a3,3,0,0,0,1.58-.54Q644.92,67.73,645.5,67.3Z" transform="translate(-497.99 0)"/><path d="M662.35,47.36l3.6-11.81h6.48l-1.08,3.6q-0.5,1.66-1.12,3.78t-1.33,4.43h4.54V50.6H668l-3.53,11.66a18.26,18.26,0,0,0-1.19,5.51q0,1.84,1.19,1.84a3.43,3.43,0,0,0,2.34-1.37,23.87,23.87,0,0,0,2.45-3.2q1.19-1.84,2.16-3.67t1.4-2.77h1.15Q673.29,60.32,672,63a39.88,39.88,0,0,1-3,5.18,24.94,24.94,0,0,1-3.64,4.28,5.84,5.84,0,0,1-4,1.8,4.27,4.27,0,0,1-4.36-3.1q-1.12-3.1.68-8.93l3.6-11.66h-2.59V47.36h3.6Z" transform="translate(-497.99 0)"/><path d="M676.31,64.92a17.86,17.86,0,0,0-.58,2.2,3.43,3.43,0,0,0,0,1.3,1,1,0,0,0,.36.65,1.54,1.54,0,0,0,.54.25,2.54,2.54,0,0,0,1.91-.54,5.74,5.74,0,0,0,2.12-2.63h1a16,16,0,0,1-2,3.78,13.44,13.44,0,0,1-2.38,2.52,8.57,8.57,0,0,1-2.45,1.4,6.77,6.77,0,0,1-2.23.43,4.26,4.26,0,0,1-1.8-.4,3.05,3.05,0,0,1-1.4-1.4,5.87,5.87,0,0,1-.5-2.84,18.51,18.51,0,0,1,.9-4.72l5.54-17.86h6.48q-1.22,4-2.3,7.49-0.94,3-1.84,6T676.31,64.92Zm9.5-28.08a4.22,4.22,0,0,1-1.3,3.1,4.14,4.14,0,0,1-3,1.3,4.19,4.19,0,0,1-3.13-1.3,4.28,4.28,0,0,1-1.26-3.1,4.13,4.13,0,0,1,1.26-3.1,4.32,4.32,0,0,1,3.13-1.22,4.27,4.27,0,0,1,3,1.22A4.08,4.08,0,0,1,685.82,36.84Z" transform="translate(-497.99 0)"/><path d="M692.87,57.72a9.55,9.55,0,0,1,4.07,4.86,8.65,8.65,0,0,1,.18,5.44,8.55,8.55,0,0,1-3.31,4.43,10.74,10.74,0,0,1-6.48,1.84,7.31,7.31,0,0,1-5.65-2.63A6.64,6.64,0,0,1,680.35,69a4.94,4.94,0,0,1,.14-2.88A5.08,5.08,0,0,1,682,63.63a4.83,4.83,0,0,1,2.27-1.08,5.13,5.13,0,0,1,2.41.14,5.26,5.26,0,0,1,2.05,1.15A4.35,4.35,0,0,1,690,65.79a3.85,3.85,0,0,1-.14,2.52q-1.37-1.3-2.48-.9a2.65,2.65,0,0,0-1.58,1.37,2.75,2.75,0,0,0-.14,2.05,2,2,0,0,0,1.84,1.3,3.35,3.35,0,0,0,2.84-.83,4.81,4.81,0,0,0,1.44-2.59,6.06,6.06,0,0,0-.25-3.24,5.8,5.8,0,0,0-2.16-2.84A10.59,10.59,0,0,1,685.42,58a8.08,8.08,0,0,1-.5-5.15,7.42,7.42,0,0,1,2.92-4.18,10.35,10.35,0,0,1,6.34-1.73,7.49,7.49,0,0,1,5.4,1.8,4.53,4.53,0,0,1,1.15,4.68,4.6,4.6,0,0,1-2.3,3,5.08,5.08,0,0,1-3.24.54,4.17,4.17,0,0,1-2.59-1.55,3.12,3.12,0,0,1-.22-3.28,2.89,2.89,0,0,0,2.56.72,2.21,2.21,0,0,0,1.4-1.19,1.85,1.85,0,0,0-.11-1.69,2.13,2.13,0,0,0-2.05-.86,3.54,3.54,0,0,0-2.45.9,4.28,4.28,0,0,0-1.33,2.23,4.89,4.89,0,0,0,.22,2.84A5.49,5.49,0,0,0,692.87,57.72Z" transform="translate(-497.99 0)"/><path d="M712,57.72a9.55,9.55,0,0,1,4.07,4.86,8.65,8.65,0,0,1,.18,5.44A8.55,8.55,0,0,1,713,72.45a10.74,10.74,0,0,1-6.48,1.84,7.31,7.31,0,0,1-5.65-2.63A6.64,6.64,0,0,1,699.5,69a4.94,4.94,0,0,1,.14-2.88,5.08,5.08,0,0,1,1.55-2.52,4.83,4.83,0,0,1,2.27-1.08,5.13,5.13,0,0,1,2.41.14,5.26,5.26,0,0,1,2.05,1.15,4.35,4.35,0,0,1,1.22,1.94,3.85,3.85,0,0,1-.14,2.52q-1.37-1.3-2.48-.9a2.65,2.65,0,0,0-1.58,1.37,2.75,2.75,0,0,0-.14,2.05,2,2,0,0,0,1.84,1.3,3.35,3.35,0,0,0,2.84-.83,4.81,4.81,0,0,0,1.44-2.59,6.06,6.06,0,0,0-.25-3.24,5.8,5.8,0,0,0-2.16-2.84A10.59,10.59,0,0,1,704.57,58a8.08,8.08,0,0,1-.5-5.15A7.42,7.42,0,0,1,707,48.65a10.35,10.35,0,0,1,6.34-1.73,7.49,7.49,0,0,1,5.4,1.8,4.53,4.53,0,0,1,1.15,4.68,4.6,4.6,0,0,1-2.3,3,5.08,5.08,0,0,1-3.24.54,4.17,4.17,0,0,1-2.59-1.55,3.12,3.12,0,0,1-.22-3.28,2.89,2.89,0,0,0,2.56.72,2.21,2.21,0,0,0,1.4-1.19,1.85,1.85,0,0,0-.11-1.69,2.13,2.13,0,0,0-2.05-.86,3.54,3.54,0,0,0-2.45.9,4.28,4.28,0,0,0-1.33,2.23,4.89,4.89,0,0,0,.22,2.84A5.49,5.49,0,0,0,712,57.72Z" transform="translate(-497.99 0)"/><path d="M734.7,47.07a4.36,4.36,0,0,1,3.53,1.37,5.19,5.19,0,0,1,1.19,3.35,10.92,10.92,0,0,1-.9,4.28,13.42,13.42,0,0,1-2.7,4.18,13.18,13.18,0,0,1-4.25,3,10.22,10.22,0,0,1-5.51.76,11.43,11.43,0,0,0,.43,4.61,2.58,2.58,0,0,0,2.66,1.87,7.75,7.75,0,0,0,4.5-1.48,21.08,21.08,0,0,0,3.78-3.35,31.69,31.69,0,0,0,3.46-4.9H742a29.68,29.68,0,0,1-4.1,6.7,24.11,24.11,0,0,1-2.23,2.48A17.55,17.55,0,0,1,733,72.05a14.26,14.26,0,0,1-3.1,1.51,10.43,10.43,0,0,1-3.46.58,6.7,6.7,0,0,1-5.22-2,9,9,0,0,1-2.23-5,17.62,17.62,0,0,1,.47-6.52,19.7,19.7,0,0,1,2.92-6.52,18.27,18.27,0,0,1,5.15-5A12.77,12.77,0,0,1,734.7,47.07Zm-1.51,2a2.85,2.85,0,0,0-2,1.15,14,14,0,0,0-2,3,28.73,28.73,0,0,0-1.69,4,35.3,35.3,0,0,0-1.19,4.39,2.65,2.65,0,0,0,2.41-.32,8.14,8.14,0,0,0,2.2-2.16A17.17,17.17,0,0,0,732.72,56a16.8,16.8,0,0,0,1.08-3.28,8.65,8.65,0,0,0,.22-2.59A0.91,0.91,0,0,0,733.19,49.08Z" transform="translate(-497.99 0)"/><path d="M751,47.07l-1,3.24,6.19-4.1a9.66,9.66,0,0,0,0,4,3.53,3.53,0,0,0,1.26,2,2.9,2.9,0,0,0,2,.5,6.72,6.72,0,0,0,2.23-.61,19.34,19.34,0,0,1-4.46,4.07,8.63,8.63,0,0,1-3.85,1.44,3.47,3.47,0,0,1-2.81-1,5.69,5.69,0,0,1-1.4-3.42L742.77,74.5h-6.55l8.21-27.43H751Z" transform="translate(-497.99 0)"/><path d="M760.91,64.92a17.86,17.86,0,0,0-.58,2.2,3.44,3.44,0,0,0,0,1.3,1,1,0,0,0,.36.65,1.54,1.54,0,0,0,.54.25,2.54,2.54,0,0,0,1.91-.54,5.73,5.73,0,0,0,2.13-2.63h1a16,16,0,0,1-2,3.78,13.44,13.44,0,0,1-2.38,2.52,8.56,8.56,0,0,1-2.45,1.4,6.78,6.78,0,0,1-2.23.43,4.26,4.26,0,0,1-1.8-.4,3.05,3.05,0,0,1-1.4-1.4,5.86,5.86,0,0,1-.5-2.84,18.51,18.51,0,0,1,.9-4.72l5.54-17.86h6.48q-1.22,4-2.3,7.49-0.94,3-1.84,6T760.91,64.92Zm9.5-28.08a4.22,4.22,0,0,1-1.3,3.1,4.14,4.14,0,0,1-3,1.3,4.19,4.19,0,0,1-3.13-1.3,4.28,4.28,0,0,1-1.26-3.1,4.13,4.13,0,0,1,1.26-3.1,4.32,4.32,0,0,1,3.13-1.22,4.27,4.27,0,0,1,3,1.22A4.07,4.07,0,0,1,770.42,36.84Z" transform="translate(-497.99 0)"/><path d="M781,47.07a4.36,4.36,0,0,1,3.53,1.37,5.19,5.19,0,0,1,1.19,3.35,10.92,10.92,0,0,1-.9,4.28,13.44,13.44,0,0,1-2.7,4.18,13.19,13.19,0,0,1-4.25,3,10.22,10.22,0,0,1-5.51.76,11.44,11.44,0,0,0,.43,4.61,2.58,2.58,0,0,0,2.66,1.87A7.75,7.75,0,0,0,780,69a21.11,21.11,0,0,0,3.78-3.35,31.62,31.62,0,0,0,3.46-4.9h1.15a29.68,29.68,0,0,1-4.1,6.7A24,24,0,0,1,782,69.93a17.5,17.5,0,0,1-2.66,2.12,14.26,14.26,0,0,1-3.1,1.51,10.43,10.43,0,0,1-3.46.58,6.7,6.7,0,0,1-5.22-2,9,9,0,0,1-2.23-5,17.64,17.64,0,0,1,.47-6.52,19.68,19.68,0,0,1,2.92-6.52,18.26,18.26,0,0,1,5.15-5A12.77,12.77,0,0,1,781,47.07Zm-1.51,2a2.85,2.85,0,0,0-2,1.15,14,14,0,0,0-2,3,28.73,28.73,0,0,0-1.69,4,35.13,35.13,0,0,0-1.19,4.39,2.65,2.65,0,0,0,2.41-.32,8.13,8.13,0,0,0,2.2-2.16A17.14,17.14,0,0,0,779,56a16.73,16.73,0,0,0,1.08-3.28,8.63,8.63,0,0,0,.22-2.59A0.91,0.91,0,0,0,779.49,49.08Z" transform="translate(-497.99 0)"/><path d="M827.51,33.17a9.43,9.43,0,0,0,4.14.58,5.86,5.86,0,0,0,3-1.08,4.78,4.78,0,0,0,1.58-2.09,3.49,3.49,0,0,0,.07-2.41A4.56,4.56,0,0,0,834.57,26,7.94,7.94,0,0,0,831,24.68a8.86,8.86,0,0,0-5.83,1,6.82,6.82,0,0,0-3.13,4,8.92,8.92,0,0,0,.4,5.69,14.28,14.28,0,0,0,4.75,6A22.5,22.5,0,0,1,836,58.55a21.56,21.56,0,0,1-1.62,8.78,22.16,22.16,0,0,1-4.86,7.34,20.88,20.88,0,0,1-7.56,4.79,20.45,20.45,0,0,1-9.76,1,16.64,16.64,0,0,1-8.57-3.24,15.1,15.1,0,0,1-4.68-6.12,16,16,0,0,1-1.12-7.45,18.74,18.74,0,0,1,2.09-7.27,15.22,15.22,0,0,1,4.9-5.51,12.67,12.67,0,0,1,7.38-2.16,8.62,8.62,0,0,1,4.61,1.12,7.76,7.76,0,0,1,2.74,2.77,7.49,7.49,0,0,1,1,3.6,7.9,7.9,0,0,1-.76,3.6,7.11,7.11,0,0,1-2.38,2.77,6.23,6.23,0,0,1-3.89,1,4.09,4.09,0,0,0,.72-2.66,4.42,4.42,0,0,0-.9-2.27,5,5,0,0,0-2-1.51,5.22,5.22,0,0,0-2.66-.4,5.42,5.42,0,0,0-3.74,1.55A9.24,9.24,0,0,0,802.63,62a12.33,12.33,0,0,0-.61,4.75,12,12,0,0,0,1.33,4.86,11.42,11.42,0,0,0,3.42,4,11.84,11.84,0,0,0,5.69,2.09,12.16,12.16,0,0,0,6.48-.86,14.55,14.55,0,0,0,5.11-3.74,17.79,17.79,0,0,0,3.35-5.65,18.13,18.13,0,0,0,1.15-6.55,16,16,0,0,0-1.48-6.52,14.07,14.07,0,0,0-4.54-5.47,19.85,19.85,0,0,1-4.9-5.29,16.4,16.4,0,0,1-2.3-5.9,13.61,13.61,0,0,1,.25-5.83,12,12,0,0,1,2.74-5,14.18,14.18,0,0,1,5.18-3.53A19.51,19.51,0,0,1,831,21.94a11.7,11.7,0,0,1,5.9,1.37,9.61,9.61,0,0,1,3.6,3.46,9.91,9.91,0,0,1,1.37,4.46,8.87,8.87,0,0,1-.86,4.46,8.54,8.54,0,0,1-3.1,3.46,9.4,9.4,0,0,1-5.26,1.37,6.45,6.45,0,0,1-3.35-.79,5.3,5.3,0,0,1-2-1.94,4.57,4.57,0,0,1-.61-2.41A3.68,3.68,0,0,1,827.51,33.17Z" transform="translate(-497.99 0)"/><path d="M855.3,30.51L849,51.82a15.5,15.5,0,0,1,3.13-3.42,5.67,5.67,0,0,1,3.56-1.33q2.38,0,2.88,1.66a8.66,8.66,0,0,1,0,4.1A34,34,0,0,1,857,58.19l-2,5.36a24.47,24.47,0,0,0-1.19,4.1q-0.29,1.66.79,1.66a4.19,4.19,0,0,0,1.94-.65,5.7,5.7,0,0,0,2.09-2.52h1.15a15.13,15.13,0,0,1-2.05,3.78,14.35,14.35,0,0,1-2.41,2.52,8.73,8.73,0,0,1-2.41,1.4,6.31,6.31,0,0,1-2.12.43,3.44,3.44,0,0,1-2.7-.94,4.1,4.1,0,0,1-.94-2.52,12.77,12.77,0,0,1,.32-3.56,41.41,41.41,0,0,1,1.12-4.07q0.68-2.09,1.44-4.07t1.26-3.56A14.25,14.25,0,0,0,852,53c0.07-.62-0.08-0.94-0.47-0.94a1.83,1.83,0,0,0-1.33.9,16.35,16.35,0,0,0-1.4,2.27,31.6,31.6,0,0,0-1.33,2.88q-0.61,1.51-1.12,2.81l-4,13.54h-6.48l13-44h6.48Z" transform="translate(-497.99 0)"/><path d="M873.23,47.07a7.42,7.42,0,0,1,4.25,1A5.34,5.34,0,0,1,879.56,51a10.43,10.43,0,0,1,.29,4.32,34,34,0,0,1-1.08,5.29,23.33,23.33,0,0,1-2.38,5.29A22.92,22.92,0,0,1,873,70.22a15.65,15.65,0,0,1-3.85,2.88,8.56,8.56,0,0,1-4,1,7.41,7.41,0,0,1-4.25-1,5.33,5.33,0,0,1-2.09-2.88,10.43,10.43,0,0,1-.29-4.32,33.91,33.91,0,0,1,1.08-5.29A22.54,22.54,0,0,1,865.27,51a15.41,15.41,0,0,1,3.89-2.88A8.93,8.93,0,0,1,873.23,47.07Zm-6.84,24q0.86,0,1.84-1.51a23.39,23.39,0,0,0,1.91-3.82,49.78,49.78,0,0,0,1.69-4.93,40.55,40.55,0,0,0,1.12-4.93,15.87,15.87,0,0,0,.22-3.82Q873,50.6,872.08,50.6a2.69,2.69,0,0,0-1.94,1.51,20.08,20.08,0,0,0-1.91,3.82,46.78,46.78,0,0,0-2.59,9.86,16.79,16.79,0,0,0-.18,3.82Q865.6,71.12,866.39,71.12Z" transform="translate(-497.99 0)"/><path d="M891.73,47.07l-1.37,4.61a14.9,14.9,0,0,1,3.06-3.35,5.58,5.58,0,0,1,3.49-1.26q2.3,0,2.84,1.66a8.3,8.3,0,0,1,.07,4.1,34,34,0,0,1-1.55,5.36l-2,5.36a24.47,24.47,0,0,0-1.19,4.1q-0.29,1.66.79,1.66a4.39,4.39,0,0,0,2-.65,5.21,5.21,0,0,0,2.05-2.52h1.15a16,16,0,0,1-2,3.78,12.83,12.83,0,0,1-2.41,2.52,9.25,9.25,0,0,1-2.45,1.4,6.31,6.31,0,0,1-2.12.43,3.44,3.44,0,0,1-2.7-.94,4.11,4.11,0,0,1-.94-2.52,12.77,12.77,0,0,1,.32-3.56,41.67,41.67,0,0,1,1.12-4.07q0.68-2.09,1.44-4.07t1.26-3.56a14.25,14.25,0,0,0,.61-2.52c0.07-.62-0.08-0.94-0.47-0.94a1.81,1.81,0,0,0-1.26.9,17.26,17.26,0,0,0-1.4,2.23q-0.72,1.33-1.37,2.84t-1.15,2.81L879.71,87h-6.48l12-40h6.48Z" transform="translate(-497.99 0)"/></g><path class="cls-3" d="M604.58,74.81a4.4,4.4,0,0,0,3.49-2,24.54,24.54,0,0,0,3-5.33,77.15,77.15,0,0,0,2.7-7.56q1.3-4.25,2.77-8.71t3.17-8.71a47.14,47.14,0,0,1,3.82-7.63,21.1,21.1,0,0,1,4.79-5.47,10.29,10.29,0,0,1,6-2.23,14.91,14.91,0,0,0-5.08-3.56,18.9,18.9,0,0,0-7.74-1.4A19.25,19.25,0,0,0,611,24.92a21.88,21.88,0,0,0-6.91,6.84,26.88,26.88,0,0,0-3.6,8.89,31.26,31.26,0,0,0-.68,8.89,16.41,16.41,0,0,0,1.87,6.84q1.55,2.74,4.07,2.74a2.37,2.37,0,0,0,1.87-.83,2.59,2.59,0,0,0,.68-1.84,2.52,2.52,0,0,0-1-1.84,4.94,4.94,0,0,0-3.2-.83,3.6,3.6,0,0,1,1.51-3.06,5.71,5.71,0,0,1,3.35-1.15,5.22,5.22,0,0,1,3.35,1.12,4.41,4.41,0,0,1,1.51,3.74,6.26,6.26,0,0,1-.79,3.13A8,8,0,0,1,610.92,60a10.52,10.52,0,0,1-6.34,2.16,12.46,12.46,0,0,1-7-1.84,11.06,11.06,0,0,1-4.1-4.86,16.57,16.57,0,0,1-1.3-6.91,25.55,25.55,0,0,1,1.37-7.88,32.35,32.35,0,0,1,4-7.88,30.8,30.8,0,0,1,6.44-6.91A31.85,31.85,0,0,1,612.68,21a31.25,31.25,0,0,1,11-1.84q8.06,0,12.85,2.34a16.15,16.15,0,0,1,6.95,5.87A13.06,13.06,0,0,1,645.4,35a17.3,17.3,0,0,1-7.6,13.54,13.27,13.27,0,0,1-7.67,2.34,14.54,14.54,0,0,1-4.9-.79q-1.66,5-3.53,9.9a49.09,49.09,0,0,1-4.36,8.86,23.86,23.86,0,0,1-5.72,6.37,12.2,12.2,0,0,1-7.56,2.45,12.79,12.79,0,0,1-3.6-.5,7.07,7.07,0,0,1-2.92-1.62,5.71,5.71,0,0,1-1.62-2.88,8.74,8.74,0,0,1,.29-4.36,4.73,4.73,0,0,1,1.69-2.7,6.83,6.83,0,0,1,2.74-1.3,7.38,7.38,0,0,1,3,0,5,5,0,0,1,2.45,1.12,3.24,3.24,0,0,1,1.08,2.16,4.62,4.62,0,0,1-1.08,3.06,2.81,2.81,0,0,0-1.76-.79,2.46,2.46,0,0,0-1.48.47,2.88,2.88,0,0,0-1,1.22A2.45,2.45,0,0,0,601.7,73a2.12,2.12,0,0,0,.83,1.26A3.27,3.27,0,0,0,604.58,74.81Zm30.74-46.37a9.41,9.41,0,0,0-2.66,2.81,29.37,29.37,0,0,0-2.3,4.36q-1.08,2.48-2.09,5.47t-2.09,6.23a12.27,12.27,0,0,0,2.23.83,8,8,0,0,0,1.94.25,5.53,5.53,0,0,0,4.25-2,12.33,12.33,0,0,0,2.63-5,17.2,17.2,0,0,0,.43-6.52A14.07,14.07,0,0,0,635.32,28.44Z" transform="translate(-497.99 0)"/><path class="cls-3" d="M660.88,44.72q-1.15,3.82-2.16,7.2-0.86,2.88-1.73,5.72l-1.3,4.28a8.28,8.28,0,0,0-.65,3.49,1.14,1.14,0,0,0,.79.9,2.77,2.77,0,0,0,2.05-.54A5.73,5.73,0,0,0,660,63.15h1a16,16,0,0,1-2,3.78,12.82,12.82,0,0,1-2.41,2.52,9.25,9.25,0,0,1-2.45,1.4,6.31,6.31,0,0,1-2.12.43,4.38,4.38,0,0,1-2.45-.76q-1.15-.76-1.3-3.06a14.64,14.64,0,0,1-3.53,2.7,8.14,8.14,0,0,1-4,1.12,3.19,3.19,0,0,1-2.3-.9,4.38,4.38,0,0,1-1.15-2.74,14.56,14.56,0,0,1,.4-4.64A35,35,0,0,1,640,56.45a21.87,21.87,0,0,1,4.25-6.52,21.2,21.2,0,0,1,5.51-4.21,16.07,16.07,0,0,1,5.83-1.8A10.17,10.17,0,0,1,660.88,44.72ZM648.5,64.3a20,20,0,0,1,.65-2.38l4.25-14.18a2.72,2.72,0,0,0-.86-0.14,3.38,3.38,0,0,0-2.38,1.33,16,16,0,0,0-2.3,3.38,41.15,41.15,0,0,0-2,4.39,25.93,25.93,0,0,0-1.3,4.39,10.78,10.78,0,0,0-.22,3.38q0.18,1.33,1.12,1.33a3,3,0,0,0,1.58-.54Q647.92,64.73,648.5,64.3Z" transform="translate(-497.99 0)"/><path class="cls-3" d="M665.35,44.36l3.6-11.81h6.48l-1.08,3.6q-0.5,1.66-1.12,3.78t-1.33,4.43h4.54V47.6H671l-3.53,11.66a18.26,18.26,0,0,0-1.19,5.51q0,1.84,1.19,1.84a3.43,3.43,0,0,0,2.34-1.37,23.87,23.87,0,0,0,2.45-3.2q1.19-1.84,2.16-3.67t1.4-2.77h1.15Q676.29,57.32,675,60a39.88,39.88,0,0,1-3,5.18,24.94,24.94,0,0,1-3.64,4.28,5.84,5.84,0,0,1-4,1.8,4.27,4.27,0,0,1-4.36-3.1q-1.12-3.1.68-8.93l3.6-11.66h-2.59V44.36h3.6Z" transform="translate(-497.99 0)"/><path class="cls-3" d="M679.31,61.92a17.86,17.86,0,0,0-.58,2.2,3.43,3.43,0,0,0,0,1.3,1,1,0,0,0,.36.65,1.54,1.54,0,0,0,.54.25,2.54,2.54,0,0,0,1.91-.54,5.74,5.74,0,0,0,2.12-2.63h1a16,16,0,0,1-2,3.78,13.44,13.44,0,0,1-2.38,2.52,8.57,8.57,0,0,1-2.45,1.4,6.77,6.77,0,0,1-2.23.43,4.26,4.26,0,0,1-1.8-.4,3.05,3.05,0,0,1-1.4-1.4,5.87,5.87,0,0,1-.5-2.84,18.51,18.51,0,0,1,.9-4.72l5.54-17.86h6.48q-1.22,4-2.3,7.49-0.94,3-1.84,6T679.31,61.92Zm9.5-28.08a4.22,4.22,0,0,1-1.3,3.1,4.14,4.14,0,0,1-3,1.3,4.19,4.19,0,0,1-3.13-1.3,4.28,4.28,0,0,1-1.26-3.1,4.13,4.13,0,0,1,1.26-3.1,4.32,4.32,0,0,1,3.13-1.22,4.27,4.27,0,0,1,3,1.22A4.08,4.08,0,0,1,688.82,33.84Z" transform="translate(-497.99 0)"/><path class="cls-3" d="M695.87,54.72a9.55,9.55,0,0,1,4.07,4.86,8.65,8.65,0,0,1,.18,5.44,8.55,8.55,0,0,1-3.31,4.43,10.74,10.74,0,0,1-6.48,1.84,7.31,7.31,0,0,1-5.65-2.63A6.64,6.64,0,0,1,683.35,66a4.94,4.94,0,0,1,.14-2.88A5.08,5.08,0,0,1,685,60.63a4.83,4.83,0,0,1,2.27-1.08,5.13,5.13,0,0,1,2.41.14,5.26,5.26,0,0,1,2.05,1.15A4.35,4.35,0,0,1,693,62.79a3.85,3.85,0,0,1-.14,2.52q-1.37-1.3-2.48-.9a2.65,2.65,0,0,0-1.58,1.37,2.75,2.75,0,0,0-.14,2.05,2,2,0,0,0,1.84,1.3,3.35,3.35,0,0,0,2.84-.83,4.81,4.81,0,0,0,1.44-2.59,6.06,6.06,0,0,0-.25-3.24,5.8,5.8,0,0,0-2.16-2.84A10.59,10.59,0,0,1,688.42,55a8.08,8.08,0,0,1-.5-5.15,7.42,7.42,0,0,1,2.92-4.18,10.35,10.35,0,0,1,6.34-1.73,7.49,7.49,0,0,1,5.4,1.8,4.53,4.53,0,0,1,1.15,4.68,4.6,4.6,0,0,1-2.3,3,5.08,5.08,0,0,1-3.24.54,4.17,4.17,0,0,1-2.59-1.55,3.12,3.12,0,0,1-.22-3.28,2.89,2.89,0,0,0,2.56.72,2.21,2.21,0,0,0,1.4-1.19,1.85,1.85,0,0,0-.11-1.69,2.13,2.13,0,0,0-2.05-.86,3.54,3.54,0,0,0-2.45.9,4.28,4.28,0,0,0-1.33,2.23,4.89,4.89,0,0,0,.22,2.84A5.49,5.49,0,0,0,695.87,54.72Z" transform="translate(-497.99 0)"/><path class="cls-3" d="M715,54.72a9.55,9.55,0,0,1,4.07,4.86,8.65,8.65,0,0,1,.18,5.44A8.55,8.55,0,0,1,716,69.45a10.74,10.74,0,0,1-6.48,1.84,7.31,7.31,0,0,1-5.65-2.63A6.64,6.64,0,0,1,702.5,66a4.94,4.94,0,0,1,.14-2.88,5.08,5.08,0,0,1,1.55-2.52,4.83,4.83,0,0,1,2.27-1.08,5.13,5.13,0,0,1,2.41.14,5.26,5.26,0,0,1,2.05,1.15,4.35,4.35,0,0,1,1.22,1.94,3.85,3.85,0,0,1-.14,2.52q-1.37-1.3-2.48-.9a2.65,2.65,0,0,0-1.58,1.37,2.75,2.75,0,0,0-.14,2.05,2,2,0,0,0,1.84,1.3,3.35,3.35,0,0,0,2.84-.83,4.81,4.81,0,0,0,1.44-2.59,6.06,6.06,0,0,0-.25-3.24,5.8,5.8,0,0,0-2.16-2.84A10.59,10.59,0,0,1,707.57,55a8.08,8.08,0,0,1-.5-5.15A7.42,7.42,0,0,1,710,45.65a10.35,10.35,0,0,1,6.34-1.73,7.49,7.49,0,0,1,5.4,1.8,4.53,4.53,0,0,1,1.15,4.68,4.6,4.6,0,0,1-2.3,3,5.08,5.08,0,0,1-3.24.54,4.17,4.17,0,0,1-2.59-1.55,3.12,3.12,0,0,1-.22-3.28,2.89,2.89,0,0,0,2.56.72,2.21,2.21,0,0,0,1.4-1.19,1.85,1.85,0,0,0-.11-1.69,2.13,2.13,0,0,0-2.05-.86,3.54,3.54,0,0,0-2.45.9,4.28,4.28,0,0,0-1.33,2.23,4.89,4.89,0,0,0,.22,2.84A5.49,5.49,0,0,0,715,54.72Z" transform="translate(-497.99 0)"/><path class="cls-3" d="M737.7,44.07a4.36,4.36,0,0,1,3.53,1.37,5.19,5.19,0,0,1,1.19,3.35,10.92,10.92,0,0,1-.9,4.28,13.42,13.42,0,0,1-2.7,4.18,13.18,13.18,0,0,1-4.25,3,10.22,10.22,0,0,1-5.51.76,11.43,11.43,0,0,0,.43,4.61,2.58,2.58,0,0,0,2.66,1.87,7.75,7.75,0,0,0,4.5-1.48,21.08,21.08,0,0,0,3.78-3.35,31.69,31.69,0,0,0,3.46-4.9H745a29.68,29.68,0,0,1-4.1,6.7,24.11,24.11,0,0,1-2.23,2.48A17.55,17.55,0,0,1,736,69.05a14.26,14.26,0,0,1-3.1,1.51,10.43,10.43,0,0,1-3.46.58,6.7,6.7,0,0,1-5.22-2,9,9,0,0,1-2.23-5,17.62,17.62,0,0,1,.47-6.52,19.7,19.7,0,0,1,2.92-6.52,18.27,18.27,0,0,1,5.15-5A12.77,12.77,0,0,1,737.7,44.07Zm-1.51,2a2.85,2.85,0,0,0-2,1.15,14,14,0,0,0-2,3,28.73,28.73,0,0,0-1.69,4,35.3,35.3,0,0,0-1.19,4.39,2.65,2.65,0,0,0,2.41-.32,8.14,8.14,0,0,0,2.2-2.16A17.17,17.17,0,0,0,735.72,53a16.8,16.8,0,0,0,1.08-3.28,8.65,8.65,0,0,0,.22-2.59A0.91,0.91,0,0,0,736.19,46.08Z" transform="translate(-497.99 0)"/><path class="cls-3" d="M754,44.07l-1,3.24,6.19-4.1a9.66,9.66,0,0,0,0,4,3.53,3.53,0,0,0,1.26,2,2.9,2.9,0,0,0,2,.5,6.72,6.72,0,0,0,2.23-.61,19.34,19.34,0,0,1-4.46,4.07,8.63,8.63,0,0,1-3.85,1.44,3.47,3.47,0,0,1-2.81-1,5.69,5.69,0,0,1-1.4-3.42L745.77,71.5h-6.55l8.21-27.43H754Z" transform="translate(-497.99 0)"/><path class="cls-3" d="M763.91,61.92a17.86,17.86,0,0,0-.58,2.2,3.44,3.44,0,0,0,0,1.3,1,1,0,0,0,.36.65,1.54,1.54,0,0,0,.54.25,2.54,2.54,0,0,0,1.91-.54,5.73,5.73,0,0,0,2.13-2.63h1a16,16,0,0,1-2,3.78,13.44,13.44,0,0,1-2.38,2.52,8.56,8.56,0,0,1-2.45,1.4,6.78,6.78,0,0,1-2.23.43,4.26,4.26,0,0,1-1.8-.4,3.05,3.05,0,0,1-1.4-1.4,5.86,5.86,0,0,1-.5-2.84,18.51,18.51,0,0,1,.9-4.72l5.54-17.86h6.48q-1.22,4-2.3,7.49-0.94,3-1.84,6T763.91,61.92Zm9.5-28.08a4.22,4.22,0,0,1-1.3,3.1,4.14,4.14,0,0,1-3,1.3,4.19,4.19,0,0,1-3.13-1.3,4.28,4.28,0,0,1-1.26-3.1,4.13,4.13,0,0,1,1.26-3.1,4.32,4.32,0,0,1,3.13-1.22,4.27,4.27,0,0,1,3,1.22A4.07,4.07,0,0,1,773.42,33.84Z" transform="translate(-497.99 0)"/><path class="cls-3" d="M784,44.07a4.36,4.36,0,0,1,3.53,1.37,5.19,5.19,0,0,1,1.19,3.35,10.92,10.92,0,0,1-.9,4.28,13.44,13.44,0,0,1-2.7,4.18,13.19,13.19,0,0,1-4.25,3,10.22,10.22,0,0,1-5.51.76,11.44,11.44,0,0,0,.43,4.61,2.58,2.58,0,0,0,2.66,1.87A7.75,7.75,0,0,0,783,66a21.11,21.11,0,0,0,3.78-3.35,31.62,31.62,0,0,0,3.46-4.9h1.15a29.68,29.68,0,0,1-4.1,6.7A24,24,0,0,1,785,66.93a17.5,17.5,0,0,1-2.66,2.12,14.26,14.26,0,0,1-3.1,1.51,10.43,10.43,0,0,1-3.46.58,6.7,6.7,0,0,1-5.22-2,9,9,0,0,1-2.23-5,17.64,17.64,0,0,1,.47-6.52,19.68,19.68,0,0,1,2.92-6.52,18.26,18.26,0,0,1,5.15-5A12.77,12.77,0,0,1,784,44.07Zm-1.51,2a2.85,2.85,0,0,0-2,1.15,14,14,0,0,0-2,3,28.73,28.73,0,0,0-1.69,4,35.13,35.13,0,0,0-1.19,4.39,2.65,2.65,0,0,0,2.41-.32,8.13,8.13,0,0,0,2.2-2.16A17.14,17.14,0,0,0,782,53a16.73,16.73,0,0,0,1.08-3.28,8.63,8.63,0,0,0,.22-2.59A0.91,0.91,0,0,0,782.49,46.08Z" transform="translate(-497.99 0)"/><path class="cls-3" d="M830.51,30.17a9.43,9.43,0,0,0,4.14.58,5.86,5.86,0,0,0,3-1.08,4.78,4.78,0,0,0,1.58-2.09,3.49,3.49,0,0,0,.07-2.41A4.56,4.56,0,0,0,837.57,23,7.94,7.94,0,0,0,834,21.68a8.86,8.86,0,0,0-5.83,1,6.82,6.82,0,0,0-3.13,4,8.92,8.92,0,0,0,.4,5.69,14.28,14.28,0,0,0,4.75,6A22.5,22.5,0,0,1,839,55.55a21.56,21.56,0,0,1-1.62,8.78,22.16,22.16,0,0,1-4.86,7.34,20.88,20.88,0,0,1-7.56,4.79,20.45,20.45,0,0,1-9.76,1,16.64,16.64,0,0,1-8.57-3.24,15.1,15.1,0,0,1-4.68-6.12,16,16,0,0,1-1.12-7.45,18.74,18.74,0,0,1,2.09-7.27,15.22,15.22,0,0,1,4.9-5.51,12.67,12.67,0,0,1,7.38-2.16,8.62,8.62,0,0,1,4.61,1.12,7.76,7.76,0,0,1,2.74,2.77,7.49,7.49,0,0,1,1,3.6,7.9,7.9,0,0,1-.76,3.6,7.11,7.11,0,0,1-2.38,2.77,6.23,6.23,0,0,1-3.89,1,4.09,4.09,0,0,0,.72-2.66,4.42,4.42,0,0,0-.9-2.27,5,5,0,0,0-2-1.51,5.22,5.22,0,0,0-2.66-.4,5.42,5.42,0,0,0-3.74,1.55A9.24,9.24,0,0,0,805.63,59a12.33,12.33,0,0,0-.61,4.75,12,12,0,0,0,1.33,4.86,11.42,11.42,0,0,0,3.42,4,11.84,11.84,0,0,0,5.69,2.09,12.16,12.16,0,0,0,6.48-.86,14.55,14.55,0,0,0,5.11-3.74,17.79,17.79,0,0,0,3.35-5.65,18.13,18.13,0,0,0,1.15-6.55,16,16,0,0,0-1.48-6.52,14.07,14.07,0,0,0-4.54-5.47,19.85,19.85,0,0,1-4.9-5.29,16.4,16.4,0,0,1-2.3-5.9,13.61,13.61,0,0,1,.25-5.83,12,12,0,0,1,2.74-5,14.18,14.18,0,0,1,5.18-3.53A19.51,19.51,0,0,1,834,18.94a11.7,11.7,0,0,1,5.9,1.37,9.61,9.61,0,0,1,3.6,3.46,9.91,9.91,0,0,1,1.37,4.46,8.87,8.87,0,0,1-.86,4.46,8.54,8.54,0,0,1-3.1,3.46,9.4,9.4,0,0,1-5.26,1.37,6.45,6.45,0,0,1-3.35-.79,5.3,5.3,0,0,1-2-1.94,4.57,4.57,0,0,1-.61-2.41A3.68,3.68,0,0,1,830.51,30.17Z" transform="translate(-497.99 0)"/><path class="cls-3" d="M858.3,27.51L852,48.82a15.5,15.5,0,0,1,3.13-3.42,5.67,5.67,0,0,1,3.56-1.33q2.38,0,2.88,1.66a8.66,8.66,0,0,1,0,4.1A34,34,0,0,1,860,55.19l-2,5.36a24.47,24.47,0,0,0-1.19,4.1q-0.29,1.66.79,1.66a4.19,4.19,0,0,0,1.94-.65,5.7,5.7,0,0,0,2.09-2.52h1.15a15.13,15.13,0,0,1-2.05,3.78,14.35,14.35,0,0,1-2.41,2.52,8.73,8.73,0,0,1-2.41,1.4,6.31,6.31,0,0,1-2.12.43,3.44,3.44,0,0,1-2.7-.94,4.1,4.1,0,0,1-.94-2.52,12.77,12.77,0,0,1,.32-3.56,41.41,41.41,0,0,1,1.12-4.07q0.68-2.09,1.44-4.07t1.26-3.56A14.25,14.25,0,0,0,855,50c0.07-.62-0.08-0.94-0.47-0.94a1.83,1.83,0,0,0-1.33.9,16.35,16.35,0,0,0-1.4,2.27,31.6,31.6,0,0,0-1.33,2.88q-0.61,1.51-1.12,2.81l-4,13.54h-6.48l13-44h6.48Z" transform="translate(-497.99 0)"/><path class="cls-3" d="M876.23,44.07a7.42,7.42,0,0,1,4.25,1A5.34,5.34,0,0,1,882.56,48a10.43,10.43,0,0,1,.29,4.32,34,34,0,0,1-1.08,5.29,23.33,23.33,0,0,1-2.38,5.29A22.92,22.92,0,0,1,876,67.22a15.65,15.65,0,0,1-3.85,2.88,8.56,8.56,0,0,1-4,1,7.41,7.41,0,0,1-4.25-1,5.33,5.33,0,0,1-2.09-2.88,10.43,10.43,0,0,1-.29-4.32,33.91,33.91,0,0,1,1.08-5.29A22.54,22.54,0,0,1,868.27,48a15.41,15.41,0,0,1,3.89-2.88A8.93,8.93,0,0,1,876.23,44.07Zm-6.84,24q0.86,0,1.84-1.51a23.39,23.39,0,0,0,1.91-3.82,49.78,49.78,0,0,0,1.69-4.93,40.55,40.55,0,0,0,1.12-4.93,15.87,15.87,0,0,0,.22-3.82Q876,47.6,875.08,47.6a2.69,2.69,0,0,0-1.94,1.51,20.08,20.08,0,0,0-1.91,3.82,46.78,46.78,0,0,0-2.59,9.86,16.79,16.79,0,0,0-.18,3.82Q868.6,68.12,869.39,68.12Z" transform="translate(-497.99 0)"/><path class="cls-3" d="M894.73,44.07l-1.37,4.61a14.9,14.9,0,0,1,3.06-3.35,5.58,5.58,0,0,1,3.49-1.26q2.3,0,2.84,1.66a8.3,8.3,0,0,1,.07,4.1,34,34,0,0,1-1.55,5.36l-2,5.36a24.47,24.47,0,0,0-1.19,4.1q-0.29,1.66.79,1.66a4.39,4.39,0,0,0,2-.65,5.21,5.21,0,0,0,2.05-2.52h1.15a16,16,0,0,1-2,3.78,12.83,12.83,0,0,1-2.41,2.52,9.25,9.25,0,0,1-2.45,1.4,6.31,6.31,0,0,1-2.12.43,3.44,3.44,0,0,1-2.7-.94,4.11,4.11,0,0,1-.94-2.52,12.77,12.77,0,0,1,.32-3.56,41.67,41.67,0,0,1,1.12-4.07q0.68-2.09,1.44-4.07t1.26-3.56a14.25,14.25,0,0,0,.61-2.52c0.07-.62-0.08-0.94-0.47-0.94a1.81,1.81,0,0,0-1.26.9,17.26,17.26,0,0,0-1.4,2.23q-0.72,1.33-1.37,2.84t-1.15,2.81L882.71,84h-6.48l12-40h6.48Z" transform="translate(-497.99 0)"/></svg>